<?xml version="1.0" encoding="UTF-8" standalone="no"?><!-- Generator: Gravit.io --><svg xmlns="http://www.w3.org/2000/svg" xmlns:xlink="http://www.w3.org/1999/xlink" style="isolation:isolate" viewBox="0 0 360 360" width="360pt" height="360pt"><defs><clipPath id="_clipPath_e1lSbKyCB9EV2QjwUVr7fYwKgUW7wHIM"><rect width="360" height="360"/></clipPath></defs><g clip-path="url(#_clipPath_e1lSbKyCB9EV2QjwUVr7fYwKgUW7wHIM)"><g><defs><filter id="plP3Lkv8fh3rAdIeAk8ZnHe6S6EQqODK" x="-200%" y="-200%" width="400%" height="400%" filterUnits="objectBoundingBox" color-interpolation-filters="sRGB"><feGaussianBlur xmlns="http://www.w3.org/2000/svg" in="SourceGraphic" stdDeviation="4.293609062839028"/><feOffset xmlns="http://www.w3.org/2000/svg" dx="1" dy="4" result="pf_100_offsetBlur"/><feFlood xmlns="http://www.w3.org/2000/svg" flood-color="#000000" flood-opacity="0.24"/><feComposite xmlns="http://www.w3.org/2000/svg" in2="pf_100_offsetBlur" operator="in" result="pf_100_dropShadow"/><feBlend xmlns="http://www.w3.org/2000/svg" in="SourceGraphic" in2="pf_100_dropShadow" mode="normal"/></filter></defs><g filter="url(#plP3Lkv8fh3rAdIeAk8ZnHe6S6EQqODK)"><mask id="_mask_wCKPIItQuokOQOJRcJa5hj1qEAK35BAo" x="-200%" y="-200%" width="400%" height="400%"><rect x="-200%" y="-200%" width="400%" height="400%" style="fill:white;"/><path d=" M 296.964 202.409 C 298.814 198.021 299.845 191.825 299.845 182.401 C 293.4 111.062 233.366 55.084 160.36 55.084 L 160.36 55.084 L 160.36 55.084 L 160.36 55.084 L 160.36 55.084 L 160.36 55.084 C 87.355 55.084 27.321 111.062 20.876 182.401 C 20.876 222.585 39.609 204.071 60.792 237.028 C 77.149 275.876 115.593 303.167 160.36 303.167 L 160.36 303.167 C 162.777 303.167 165.175 303.087 167.552 302.931 L 167.552 304.916 L 339.124 304.916 L 339.124 202.409 L 296.964 202.409 L 296.964 202.409 Z " fill="black" stroke="none"/></mask><path d=" M 296.964 202.409 C 298.814 198.021 299.845 191.825 299.845 182.401 C 293.4 111.062 233.366 55.084 160.36 55.084 L 160.36 55.084 L 160.36 55.084 L 160.36 55.084 L 160.36 55.084 L 160.36 55.084 C 87.355 55.084 27.321 111.062 20.876 182.401 C 20.876 222.585 39.609 204.071 60.792 237.028 C 77.149 275.876 115.593 303.167 160.36 303.167 L 160.36 303.167 C 162.777 303.167 165.175 303.087 167.552 302.931 L 167.552 304.916 L 339.124 304.916 L 339.124 202.409 L 296.964 202.409 L 296.964 202.409 Z " fill="rgb(255,255,255)"/><path d=" M 296.964 202.409 C 298.814 198.021 299.845 191.825 299.845 182.401 C 293.4 111.062 233.366 55.084 160.36 55.084 L 160.36 55.084 L 160.36 55.084 L 160.36 55.084 L 160.36 55.084 L 160.36 55.084 C 87.355 55.084 27.321 111.062 20.876 182.401 C 20.876 222.585 39.609 204.071 60.792 237.028 C 77.149 275.876 115.593 303.167 160.36 303.167 L 160.36 303.167 C 162.777 303.167 165.175 303.087 167.552 302.931 L 167.552 304.916 L 339.124 304.916 L 339.124 202.409 L 296.964 202.409 L 296.964 202.409 Z " fill="rgb(255,255,255)" mask="url(#_mask_wCKPIItQuokOQOJRcJa5hj1qEAK35BAo)" vector-effect="non-scaling-stroke" stroke-width="8" stroke="rgb(255,255,255)" stroke-linejoin="round" stroke-linecap="round" stroke-miterlimit="3"/></g><g><g><g><path d=" M 90.12 195.141 C 90.12 233.908 121.594 265.381 160.36 265.381 C 199.127 265.381 230.6 233.908 230.6 195.141 C 230.6 156.375 199.127 124.901 160.36 124.901 C 121.594 124.901 90.12 156.375 90.12 195.141 Z " fill="rgb(248,234,0)"/><path d=" M 195.154 279.139 L 160.36 240.601 L 125.567 279.139 L 128.216 227.286 L 76.362 229.934 L 114.901 195.141 L 76.362 160.348 L 128.216 162.996 L 125.567 111.143 L 160.36 149.682 L 195.154 111.143 L 192.505 162.996 L 244.359 160.348 L 205.82 195.141 L 244.359 229.934 L 192.505 227.286 L 195.154 279.139 Z " fill="rgb(21,43,121)"/><path d=" M 111.683 243.818 L 125.941 195.141 L 111.683 146.464 L 160.36 160.721 L 209.037 146.464 L 194.78 195.141 L 209.037 243.818 L 160.36 229.561 L 111.683 243.818 Z " fill="rgb(231,0,0)"/><path d=" M 160.36 286.06 L 128.216 227.286 L 69.441 195.141 L 128.216 162.996 L 160.36 104.222 L 192.505 162.996 L 251.28 195.141 L 192.505 227.286 L 160.36 286.06 Z " fill="rgb(112,26,19)"/><path d=" M 159.126 279.248 L 130.443 226.804 L 159.126 198.122 L 159.126 279.248 Z  M 76.254 193.906 L 128.697 165.224 L 157.379 193.906 L 76.254 193.906 Z  M 161.595 111.034 L 190.277 163.478 L 161.595 192.16 L 161.595 111.034 Z  M 244.467 196.376 L 192.024 225.058 L 163.341 196.376 L 244.467 196.376 Z " fill-rule="evenodd" fill="rgb(248,234,0)"/></g><path d=" M 273.617 164.432 L 273.617 164.432 L 273.617 164.432 Q 273.868 165.416 273.591 166.411 L 273.591 166.411 L 273.591 166.411 Q 273.315 167.36 272.603 168.06 L 272.603 168.06 L 272.603 168.06 Q 271.862 168.778 270.878 169.029 L 270.878 169.029 L 270.878 169.029 Q 269.904 169.277 268.91 169 L 268.91 169 L 268.91 169 Q 267.963 168.734 267.264 168.022 L 267.264 168.022 L 267.264 168.022 Q 266.548 167.292 266.295 166.297 L 266.295 166.297 L 266.295 166.297 Q 266.041 165.303 266.323 164.329 L 266.323 164.329 L 266.323 164.329 Q 266.594 163.359 267.298 162.672 L 267.298 162.672 L 267.298 162.672 Q 268.029 161.957 269.013 161.706 L 269.013 161.706 L 269.013 161.706 Q 270.007 161.453 270.991 161.732 L 270.991 161.732 L 270.991 161.732 Q 271.951 162.006 272.651 162.718 L 272.651 162.718 L 272.651 162.718 Q 273.366 163.448 273.617 164.432 Z  M 272.887 164.618 L 272.887 164.618 L 272.887 164.618 Q 272.577 163.401 271.504 162.773 L 271.504 162.773 L 271.504 162.773 Q 270.416 162.126 269.199 162.436 L 269.199 162.436 L 269.199 162.436 Q 267.992 162.744 267.356 163.83 L 267.356 163.83 L 267.356 163.83 Q 266.707 164.908 267.014 166.114 L 267.014 166.114 L 267.014 166.114 Q 267.324 167.331 268.41 167.967 L 268.41 167.967 L 268.41 167.967 Q 269.475 168.609 270.692 168.299 L 270.692 168.299 L 270.692 168.299 Q 271.919 167.986 272.558 166.91 L 272.558 166.91 L 272.558 166.91 Q 273.2 165.846 272.887 164.618 Z  M 267.387 164.306 L 271.684 163.212 L 272.142 165.011 L 272.142 165.011 Q 272.304 165.646 271.991 166.187 L 271.991 166.187 L 271.991 166.187 Q 271.678 166.729 271.064 166.885 L 271.064 166.885 L 271.064 166.885 Q 270.324 167.074 269.812 166.483 L 269.812 166.483 L 268.631 167.55 L 268.121 167.184 L 267.997 166.698 L 269.35 165.508 L 269.237 165.063 L 267.681 165.46 L 267.387 164.306 Z  M 271.294 165.046 L 271.294 165.046 L 271.173 164.57 L 270.03 164.861 L 270.149 165.327 L 270.149 165.327 Q 270.224 165.623 270.461 165.754 L 270.461 165.754 L 270.461 165.754 Q 270.628 165.836 270.818 165.787 L 270.818 165.787 L 270.818 165.787 Q 271.104 165.715 271.241 165.544 L 271.241 165.544 L 271.241 165.544 Q 271.373 165.353 271.294 165.046 Z  M 142.373 86.659 L 140.378 66.654 L 150.241 65.67 L 150.241 65.67 Q 153.286 65.366 154.973 66.157 L 154.973 66.157 L 154.973 66.157 Q 157.843 67.48 158.166 70.721 L 158.166 70.721 L 158.166 70.721 Q 158.333 72.397 157.626 73.794 L 157.626 73.794 L 157.626 73.794 Q 156.919 75.191 155.552 75.92 L 155.552 75.92 L 155.552 75.92 Q 156.843 76.13 157.714 77.228 L 157.714 77.228 L 157.714 77.228 Q 158.295 77.96 158.559 78.766 L 158.559 78.766 L 158.559 78.766 Q 158.823 79.572 159.364 82.453 L 159.364 82.453 L 159.364 82.453 Q 159.744 84.278 160.096 84.694 L 160.096 84.694 L 160.283 84.873 L 154.946 85.405 L 154.946 85.405 Q 154.636 84.843 153.941 81.273 L 153.941 81.273 L 153.941 81.273 Q 153.537 79.479 152.683 78.844 L 152.683 78.844 L 152.683 78.844 Q 151.83 78.21 150.07 78.385 L 150.07 78.385 L 146.857 78.706 L 147.598 86.138 L 142.373 86.659 Z  M 149.644 69.878 L 146.012 70.24 L 146.483 74.962 L 150.171 74.594 L 150.171 74.594 Q 153.328 74.279 153.089 71.876 L 153.089 71.876 L 153.089 71.876 Q 152.858 69.557 149.644 69.878 L 149.644 69.878 Z  M 173.152 65.905 L 178.46 66.435 L 183.953 87.187 L 178.532 86.646 L 177.612 82.858 L 170.683 82.167 L 169.033 85.699 L 163.668 85.164 L 173.152 65.905 Z  M 172.258 78.543 L 176.784 78.994 L 176.105 76.189 L 176.105 76.189 Q 175.512 73.647 175.268 71.563 L 175.268 71.563 L 175.268 71.563 Q 174.492 73.686 173.445 75.98 L 173.445 75.98 L 172.258 78.543 Z  M 205.44 73.103 L 210.323 74.61 L 204.394 93.821 L 199.511 92.313 L 197.024 81.996 L 196.529 79.697 L 196.529 79.697 Q 196.383 79.123 196.229 77.812 L 196.229 77.812 L 196.229 77.812 Q 195.762 79.99 194.91 82.753 L 194.91 82.753 L 192.616 90.185 L 187.733 88.678 L 193.662 69.468 L 198.733 71.033 L 200.999 80.636 L 200.999 80.636 Q 201.649 83.482 201.904 85.323 L 201.904 85.323 L 201.904 85.323 Q 202.558 82.44 203.221 80.294 L 203.221 80.294 L 205.44 73.103 Z  M 223.898 92.466 L 231.124 96.85 L 225.458 106.188 L 222.577 104.441 L 222.577 104.441 Q 223.007 103.191 223.299 102.711 L 223.299 102.711 L 223.299 102.711 Q 223.328 102.663 223.371 102.591 L 223.371 102.591 L 223.371 102.591 Q 223.43 102.495 223.473 102.422 L 223.473 102.422 L 223.473 102.422 Q 220.251 103.62 216.914 101.596 L 216.914 101.596 L 216.914 101.596 Q 212.953 99.193 212.352 94.986 L 212.352 94.986 L 212.352 94.986 Q 211.845 91.328 214.103 87.607 L 214.103 87.607 L 214.103 87.607 Q 216.724 83.286 221.005 82.402 L 221.005 82.402 L 221.005 82.402 Q 224.721 81.635 228.322 83.82 L 228.322 83.82 L 228.322 83.82 Q 231.587 85.8 232.554 89.08 L 232.554 89.08 L 232.554 89.08 Q 233.392 91.92 232.083 94.673 L 232.083 94.673 L 227.738 92.037 L 227.738 92.037 Q 228.72 89.119 226.007 87.473 L 226.007 87.473 L 226.007 87.473 Q 224.039 86.279 222.131 87.042 L 222.131 87.042 L 222.131 87.042 Q 220.222 87.806 218.635 90.422 L 218.635 90.422 L 218.635 90.422 Q 215.46 95.656 219.733 98.248 L 219.733 98.248 L 219.733 98.248 Q 222.878 100.156 225.082 97.552 L 225.082 97.552 L 221.961 95.659 L 223.898 92.466 Z  M 243.303 94.958 L 255.208 105.781 L 252.3 108.98 L 244.28 101.69 L 242.032 104.162 L 249.366 110.83 L 246.59 113.884 L 239.256 107.216 L 236.573 110.166 L 244.78 117.627 L 241.871 120.827 L 229.779 109.834 L 243.303 94.958 Z  M 245.027 124.942 L 261.135 112.913 L 267.066 120.854 L 267.066 120.854 Q 268.897 123.307 269.09 125.16 L 269.09 125.16 L 269.09 125.16 Q 269.437 128.3 266.828 130.249 L 266.828 130.249 L 266.828 130.249 Q 265.478 131.257 263.916 131.372 L 263.916 131.372 L 263.916 131.372 Q 262.355 131.487 261.026 130.692 L 261.026 130.692 L 261.026 130.692 Q 261.512 131.906 261.02 133.219 L 261.02 133.219 L 261.02 133.219 Q 260.693 134.095 260.138 134.736 L 260.138 134.736 L 260.138 134.736 Q 259.584 135.378 257.395 137.328 L 257.395 137.328 L 257.395 137.328 Q 256.028 138.594 255.853 139.111 L 255.853 139.111 L 255.796 139.363 L 252.587 135.066 L 252.587 135.066 Q 252.909 134.511 255.609 132.074 L 255.609 132.074 L 255.609 132.074 Q 256.937 130.802 257.04 129.743 L 257.04 129.743 L 257.04 129.743 Q 257.144 128.685 256.085 127.268 L 256.085 127.268 L 254.153 124.68 L 248.169 129.15 L 245.027 124.942 Z  M 263.154 122.514 L 260.97 119.59 L 257.168 122.429 L 259.385 125.399 L 259.385 125.399 Q 261.284 127.941 263.219 126.496 L 263.219 126.496 L 263.219 126.496 Q 265.086 125.101 263.154 122.514 L 263.154 122.514 Z  M 277.105 152.777 L 277.105 152.777 L 275.117 148.192 L 275.117 148.192 Q 277.34 147.106 276.1 144.246 L 276.1 144.246 L 276.1 144.246 Q 275.017 141.747 273.394 142.451 L 273.394 142.451 L 273.394 142.451 Q 272.647 142.775 272.602 143.59 L 272.602 143.59 L 272.602 143.59 Q 272.565 144.279 273.121 147.68 L 273.121 147.68 L 273.121 147.68 Q 273.635 150.915 273.38 152.586 L 273.38 152.586 L 273.38 152.586 Q 272.972 155.457 270.19 156.663 L 270.19 156.663 L 270.19 156.663 Q 267.15 157.98 264.462 156.299 L 264.462 156.299 L 264.462 156.299 Q 262.115 154.838 260.641 151.437 L 260.641 151.437 L 260.641 151.437 Q 258.854 147.315 259.9 144.291 L 259.9 144.291 L 259.9 144.291 Q 260.8 141.636 263.74 140.301 L 263.74 140.301 L 265.839 145.144 L 265.839 145.144 Q 262.969 146.572 264.455 149.998 L 264.455 149.998 L 264.455 149.998 Q 265.672 152.806 267.553 151.991 L 267.553 151.991 L 267.553 151.991 Q 268.429 151.611 268.535 150.693 L 268.535 150.693 L 268.535 150.693 Q 268.642 149.774 268.205 146.506 L 268.205 146.506 L 268.205 146.506 Q 267.679 142.541 268.185 140.883 L 268.185 140.883 L 268.185 140.883 Q 268.782 138.941 271.075 137.948 L 271.075 137.948 L 271.075 137.948 Q 273.805 136.764 276.36 138.35 L 276.36 138.35 L 276.36 138.35 Q 278.585 139.742 279.925 142.833 L 279.925 142.833 L 279.925 142.833 Q 281.522 146.517 280.582 149.22 L 280.582 149.22 L 280.582 149.22 Q 279.762 151.565 277.105 152.777 Z  M 56.587 158.946 L 38.14 150.954 L 42.08 141.859 L 42.08 141.859 Q 43.296 139.051 44.809 137.962 L 44.809 137.962 L 44.809 137.962 Q 47.36 136.099 50.349 137.394 L 50.349 137.394 L 50.349 137.394 Q 51.895 138.063 52.771 139.361 L 52.771 139.361 L 52.771 139.361 Q 53.647 140.658 53.619 142.207 L 53.619 142.207 L 53.619 142.207 Q 54.43 141.181 55.814 140.954 L 55.814 140.954 L 55.814 140.954 Q 56.736 140.803 57.569 140.965 L 57.569 140.965 L 57.569 140.965 Q 58.401 141.127 61.181 142.056 L 61.181 142.056 L 61.181 142.056 Q 62.96 142.612 63.495 142.507 L 63.495 142.507 L 63.742 142.431 L 61.61 147.352 L 61.61 147.352 Q 60.969 147.349 57.511 146.219 L 57.511 146.219 L 57.511 146.219 Q 55.747 145.699 54.778 146.136 L 54.778 146.136 L 54.778 146.136 Q 53.808 146.573 53.105 148.196 L 53.105 148.196 L 51.821 151.159 L 58.675 154.128 L 56.587 158.946 Z  M 45.465 144.428 L 44.014 147.777 L 48.369 149.663 L 49.842 146.262 L 49.842 146.262 Q 51.103 143.351 48.888 142.391 L 48.888 142.391 L 48.888 142.391 Q 46.749 141.465 45.465 144.428 L 45.465 144.428 Z  M 55.369 118.128 L 55.369 118.128 L 55.369 118.128 Q 58.175 114.37 62.493 114.125 L 62.493 114.125 L 62.493 114.125 Q 66.238 113.944 69.726 116.548 L 69.726 116.548 L 69.726 116.548 Q 73.753 119.555 74.267 123.794 L 74.267 123.794 L 74.267 123.794 Q 74.724 127.499 72.288 130.761 L 72.288 130.761 L 72.288 130.761 Q 69.432 134.586 65.097 134.854 L 65.097 134.854 L 65.097 134.854 Q 61.358 135.075 57.848 132.454 L 57.848 132.454 L 57.848 132.454 Q 53.821 129.447 53.329 125.365 L 53.329 125.365 L 53.329 125.365 Q 52.883 121.457 55.369 118.128 Z  M 58.817 120.737 L 58.817 120.737 L 58.817 120.737 Q 57.456 122.56 58.23 124.714 L 58.23 124.714 L 58.23 124.714 Q 58.88 126.566 61.017 128.162 L 61.017 128.162 L 61.017 128.162 Q 63.515 130.027 65.705 129.91 L 65.705 129.91 L 65.705 129.91 Q 67.614 129.794 68.823 128.174 L 68.823 128.174 L 68.823 128.174 Q 70.1 126.464 69.484 124.497 L 69.484 124.497 L 69.484 124.497 Q 68.868 122.53 66.46 120.733 L 66.46 120.733 L 66.46 120.733 Q 64.008 118.901 61.863 119.052 L 61.863 119.052 L 61.863 119.052 Q 59.993 119.162 58.817 120.737 Z  M 76.397 96.169 L 80.74 92.223 L 83.695 106.497 L 88.775 112.087 L 84.889 115.618 L 79.809 110.028 L 65.903 105.706 L 70.308 101.702 L 74.903 103.294 L 74.903 103.294 Q 76.781 103.94 78.818 104.972 L 78.818 104.972 L 78.818 104.972 Q 77.865 102.461 77.418 100.591 L 77.418 100.591 L 76.397 96.169 Z  M 91.451 85.174 L 96.012 82.406 L 112.875 95.69 L 108.218 98.516 L 105.206 96.041 L 99.253 99.654 L 100.057 103.469 L 95.448 106.265 L 91.451 85.174 Z  M 98.333 95.811 L 102.222 93.451 L 99.993 91.618 L 99.993 91.618 Q 97.991 89.943 96.543 88.423 L 96.543 88.423 L 96.543 88.423 Q 97.199 90.587 97.741 93.05 L 97.741 93.05 L 98.333 95.811 Z  M 120.033 88.266 L 128.898 85.038 L 130.445 89.286 L 116.646 94.31 L 109.767 75.419 L 114.701 73.623 L 120.033 88.266 Z " fill="rgb(248,234,0)"/><path d=" M 57.941 195.141 C 57.941 138.614 103.833 92.721 160.36 92.721 C 216.887 92.721 262.78 138.614 262.78 195.141 C 262.78 251.668 216.887 297.561 160.36 297.561 C 103.833 297.561 57.941 251.668 57.941 195.141 L 57.941 195.141 Z  M 160.36 55.084 L 160.36 55.084 L 160.36 55.084 C 233.366 55.084 293.4 111.062 299.845 182.401 C 299.845 222.585 281.112 204.071 259.929 237.028 C 243.572 275.876 205.128 303.167 160.36 303.167 L 160.36 303.167 C 115.593 303.167 77.149 275.876 60.792 237.028 C 39.609 204.071 20.876 222.585 20.876 182.401 C 27.321 111.062 87.355 55.084 160.36 55.084 L 160.36 55.084 Z  M 271.294 165.046 L 271.294 165.046 L 271.173 164.57 L 270.03 164.861 L 270.149 165.327 L 270.149 165.327 Q 270.224 165.623 270.461 165.754 L 270.461 165.754 L 270.461 165.754 Q 270.628 165.836 270.818 165.787 L 270.818 165.787 L 270.818 165.787 Q 271.104 165.715 271.241 165.544 L 271.241 165.544 L 271.241 165.544 Q 271.373 165.353 271.294 165.046 L 271.294 165.046 Z  M 149.644 69.878 L 146.012 70.24 L 146.483 74.962 L 150.171 74.594 L 150.171 74.594 Q 153.328 74.279 153.089 71.876 L 153.089 71.876 L 153.089 71.876 Q 152.858 69.557 149.644 69.878 L 149.644 69.878 L 149.644 69.878 Z  M 172.258 78.543 L 176.784 78.994 L 176.105 76.189 L 176.105 76.189 Q 175.512 73.647 175.268 71.563 L 175.268 71.563 L 175.268 71.563 Q 174.492 73.686 173.445 75.98 L 173.445 75.98 L 172.258 78.543 L 172.258 78.543 Z  M 205.44 73.103 L 210.323 74.61 L 204.394 93.821 L 199.511 92.313 L 197.024 81.996 L 196.529 79.697 L 196.529 79.697 Q 196.383 79.123 196.229 77.812 L 196.229 77.812 L 196.229 77.812 Q 195.762 79.99 194.91 82.753 L 194.91 82.753 L 192.616 90.185 L 187.733 88.678 L 193.662 69.468 L 198.733 71.033 L 200.999 80.636 L 200.999 80.636 Q 201.649 83.482 201.904 85.323 L 201.904 85.323 L 201.904 85.323 Q 202.558 82.44 203.221 80.294 L 203.221 80.294 L 205.44 73.103 L 205.44 73.103 Z  M 223.898 92.466 L 231.124 96.85 L 225.458 106.188 L 222.577 104.441 L 222.577 104.441 Q 223.007 103.191 223.299 102.711 L 223.299 102.711 L 223.299 102.711 Q 223.328 102.663 223.371 102.591 L 223.371 102.591 L 223.371 102.591 Q 223.43 102.495 223.473 102.422 L 223.473 102.422 L 223.473 102.422 Q 220.251 103.62 216.914 101.596 L 216.914 101.596 L 216.914 101.596 Q 212.953 99.193 212.352 94.986 L 212.352 94.986 L 212.352 94.986 Q 211.845 91.328 214.103 87.607 L 214.103 87.607 L 214.103 87.607 Q 216.724 83.286 221.005 82.402 L 221.005 82.402 L 221.005 82.402 Q 224.721 81.635 228.322 83.82 L 228.322 83.82 L 228.322 83.82 Q 231.587 85.8 232.554 89.08 L 232.554 89.08 L 232.554 89.08 Q 233.392 91.92 232.083 94.673 L 232.083 94.673 L 227.738 92.037 L 227.738 92.037 Q 228.72 89.119 226.007 87.473 L 226.007 87.473 L 226.007 87.473 Q 224.039 86.279 222.131 87.042 L 222.131 87.042 L 222.131 87.042 Q 220.222 87.806 218.635 90.422 L 218.635 90.422 L 218.635 90.422 Q 215.46 95.656 219.733 98.248 L 219.733 98.248 L 219.733 98.248 Q 222.878 100.156 225.082 97.552 L 225.082 97.552 L 221.961 95.659 L 223.898 92.466 L 223.898 92.466 Z  M 243.303 94.958 L 255.208 105.781 L 252.3 108.98 L 244.28 101.69 L 242.032 104.162 L 249.366 110.83 L 246.59 113.884 L 239.256 107.216 L 236.573 110.166 L 244.78 117.627 L 241.871 120.827 L 229.779 109.834 L 243.303 94.958 L 243.303 94.958 Z  M 263.154 122.514 L 260.97 119.59 L 257.168 122.429 L 259.385 125.399 L 259.385 125.399 Q 261.284 127.941 263.219 126.496 L 263.219 126.496 L 263.219 126.496 Q 265.086 125.101 263.154 122.514 L 263.154 122.514 L 263.154 122.514 Z  M 277.105 152.777 L 277.105 152.777 L 275.117 148.192 L 275.117 148.192 Q 277.34 147.106 276.1 144.246 L 276.1 144.246 L 276.1 144.246 Q 275.017 141.747 273.394 142.451 L 273.394 142.451 L 273.394 142.451 Q 272.647 142.775 272.602 143.59 L 272.602 143.59 L 272.602 143.59 Q 272.565 144.279 273.121 147.68 L 273.121 147.68 L 273.121 147.68 Q 273.635 150.915 273.38 152.586 L 273.38 152.586 L 273.38 152.586 Q 272.972 155.457 270.19 156.663 L 270.19 156.663 L 270.19 156.663 Q 267.15 157.98 264.462 156.299 L 264.462 156.299 L 264.462 156.299 Q 262.115 154.838 260.641 151.437 L 260.641 151.437 L 260.641 151.437 Q 258.854 147.315 259.9 144.291 L 259.9 144.291 L 259.9 144.291 Q 260.8 141.636 263.74 140.301 L 263.74 140.301 L 265.839 145.144 L 265.839 145.144 Q 262.969 146.572 264.455 149.998 L 264.455 149.998 L 264.455 149.998 Q 265.672 152.806 267.553 151.991 L 267.553 151.991 L 267.553 151.991 Q 268.429 151.611 268.535 150.693 L 268.535 150.693 L 268.535 150.693 Q 268.642 149.774 268.205 146.506 L 268.205 146.506 L 268.205 146.506 Q 267.679 142.541 268.185 140.883 L 268.185 140.883 L 268.185 140.883 Q 268.782 138.941 271.075 137.948 L 271.075 137.948 L 271.075 137.948 Q 273.805 136.764 276.36 138.35 L 276.36 138.35 L 276.36 138.35 Q 278.585 139.742 279.925 142.833 L 279.925 142.833 L 279.925 142.833 Q 281.522 146.517 280.582 149.22 L 280.582 149.22 L 280.582 149.22 Q 279.762 151.565 277.105 152.777 L 277.105 152.777 Z  M 45.465 144.428 L 44.014 147.777 L 48.369 149.663 L 49.842 146.262 L 49.842 146.262 Q 51.103 143.351 48.888 142.391 L 48.888 142.391 L 48.888 142.391 Q 46.749 141.465 45.465 144.428 L 45.465 144.428 L 45.465 144.428 Z  M 58.817 120.737 L 58.817 120.737 L 58.817 120.737 Q 57.456 122.56 58.23 124.714 L 58.23 124.714 L 58.23 124.714 Q 58.88 126.566 61.017 128.162 L 61.017 128.162 L 61.017 128.162 Q 63.515 130.027 65.705 129.91 L 65.705 129.91 L 65.705 129.91 Q 67.614 129.794 68.823 128.174 L 68.823 128.174 L 68.823 128.174 Q 70.1 126.464 69.484 124.497 L 69.484 124.497 L 69.484 124.497 Q 68.868 122.53 66.46 120.733 L 66.46 120.733 L 66.46 120.733 Q 64.008 118.901 61.863 119.052 L 61.863 119.052 L 61.863 119.052 Q 59.993 119.162 58.817 120.737 L 58.817 120.737 Z  M 76.397 96.169 L 80.74 92.223 L 83.695 106.497 L 88.775 112.087 L 84.889 115.618 L 79.809 110.028 L 65.903 105.706 L 70.308 101.702 L 74.903 103.294 L 74.903 103.294 Q 76.781 103.94 78.818 104.972 L 78.818 104.972 L 78.818 104.972 Q 77.865 102.461 77.418 100.591 L 77.418 100.591 L 76.397 96.169 L 76.397 96.169 Z  M 98.333 95.811 L 102.222 93.451 L 99.993 91.618 L 99.993 91.618 Q 97.991 89.943 96.543 88.423 L 96.543 88.423 L 96.543 88.423 Q 97.199 90.587 97.741 93.05 L 97.741 93.05 L 98.333 95.811 L 98.333 95.811 Z  M 120.033 88.266 L 128.898 85.038 L 130.445 89.286 L 116.646 94.31 L 109.767 75.419 L 114.701 73.623 L 120.033 88.266 L 120.033 88.266 Z  M 267.387 164.306 L 271.684 163.212 L 272.142 165.011 L 272.142 165.011 Q 272.304 165.646 271.991 166.187 L 271.991 166.187 L 271.991 166.187 Q 271.678 166.729 271.064 166.885 L 271.064 166.885 L 271.064 166.885 Q 270.324 167.074 269.812 166.483 L 269.812 166.483 L 268.631 167.55 L 268.121 167.184 L 267.997 166.698 L 269.35 165.508 L 269.237 165.063 L 267.681 165.46 L 267.387 164.306 L 267.387 164.306 Z  M 142.373 86.659 L 140.378 66.654 L 150.241 65.67 L 150.241 65.67 Q 153.286 65.366 154.973 66.157 L 154.973 66.157 L 154.973 66.157 Q 157.843 67.48 158.166 70.721 L 158.166 70.721 L 158.166 70.721 Q 158.333 72.397 157.626 73.794 L 157.626 73.794 L 157.626 73.794 Q 156.919 75.191 155.552 75.92 L 155.552 75.92 L 155.552 75.92 Q 156.843 76.13 157.714 77.228 L 157.714 77.228 L 157.714 77.228 Q 158.295 77.96 158.559 78.766 L 158.559 78.766 L 158.559 78.766 Q 158.823 79.572 159.364 82.453 L 159.364 82.453 L 159.364 82.453 Q 159.744 84.278 160.096 84.694 L 160.096 84.694 L 160.283 84.873 L 154.946 85.405 L 154.946 85.405 Q 154.636 84.843 153.941 81.273 L 153.941 81.273 L 153.941 81.273 Q 153.537 79.479 152.683 78.844 L 152.683 78.844 L 152.683 78.844 Q 151.83 78.21 150.07 78.385 L 150.07 78.385 L 146.857 78.706 L 147.598 86.138 L 142.373 86.659 L 142.373 86.659 Z  M 173.152 65.905 L 178.46 66.435 L 183.953 87.187 L 178.532 86.646 L 177.612 82.858 L 170.683 82.167 L 169.033 85.699 L 163.668 85.164 L 173.152 65.905 L 173.152 65.905 Z  M 245.027 124.942 L 261.135 112.913 L 267.066 120.854 L 267.066 120.854 Q 268.897 123.307 269.09 125.16 L 269.09 125.16 L 269.09 125.16 Q 269.437 128.3 266.828 130.249 L 266.828 130.249 L 266.828 130.249 Q 265.478 131.257 263.916 131.372 L 263.916 131.372 L 263.916 131.372 Q 262.355 131.487 261.026 130.692 L 261.026 130.692 L 261.026 130.692 Q 261.512 131.906 261.02 133.219 L 261.02 133.219 L 261.02 133.219 Q 260.693 134.095 260.138 134.736 L 260.138 134.736 L 260.138 134.736 Q 259.584 135.378 257.395 137.328 L 257.395 137.328 L 257.395 137.328 Q 256.028 138.594 255.853 139.111 L 255.853 139.111 L 255.796 139.363 L 252.587 135.066 L 252.587 135.066 Q 252.909 134.511 255.609 132.074 L 255.609 132.074 L 255.609 132.074 Q 256.937 130.802 257.04 129.743 L 257.04 129.743 L 257.04 129.743 Q 257.144 128.685 256.085 127.268 L 256.085 127.268 L 254.153 124.68 L 248.169 129.15 L 245.027 124.942 L 245.027 124.942 Z  M 56.587 158.946 L 38.14 150.954 L 42.08 141.859 L 42.08 141.859 Q 43.296 139.051 44.809 137.962 L 44.809 137.962 L 44.809 137.962 Q 47.36 136.099 50.349 137.394 L 50.349 137.394 L 50.349 137.394 Q 51.895 138.063 52.771 139.361 L 52.771 139.361 L 52.771 139.361 Q 53.647 140.658 53.619 142.207 L 53.619 142.207 L 53.619 142.207 Q 54.43 141.181 55.814 140.954 L 55.814 140.954 L 55.814 140.954 Q 56.736 140.803 57.569 140.965 L 57.569 140.965 L 57.569 140.965 Q 58.401 141.127 61.181 142.056 L 61.181 142.056 L 61.181 142.056 Q 62.96 142.612 63.495 142.507 L 63.495 142.507 L 63.742 142.431 L 61.61 147.352 L 61.61 147.352 Q 60.969 147.349 57.511 146.219 L 57.511 146.219 L 57.511 146.219 Q 55.747 145.699 54.778 146.136 L 54.778 146.136 L 54.778 146.136 Q 53.808 146.573 53.105 148.196 L 53.105 148.196 L 51.821 151.159 L 58.675 154.128 L 56.587 158.946 L 56.587 158.946 Z  M 55.369 118.128 L 55.369 118.128 L 55.369 118.128 Q 58.175 114.37 62.493 114.125 L 62.493 114.125 L 62.493 114.125 Q 66.238 113.944 69.726 116.548 L 69.726 116.548 L 69.726 116.548 Q 73.753 119.555 74.267 123.794 L 74.267 123.794 L 74.267 123.794 Q 74.724 127.499 72.288 130.761 L 72.288 130.761 L 72.288 130.761 Q 69.432 134.586 65.097 134.854 L 65.097 134.854 L 65.097 134.854 Q 61.358 135.075 57.848 132.454 L 57.848 132.454 L 57.848 132.454 Q 53.821 129.447 53.329 125.365 L 53.329 125.365 L 53.329 125.365 Q 52.883 121.457 55.369 118.128 L 55.369 118.128 Z  M 91.451 85.174 L 96.012 82.406 L 112.875 95.69 L 108.218 98.516 L 105.206 96.041 L 99.253 99.654 L 100.057 103.469 L 95.448 106.265 L 91.451 85.174 L 91.451 85.174 Z  M 272.887 164.618 L 272.887 164.618 L 272.887 164.618 Q 272.577 163.401 271.504 162.773 L 271.504 162.773 L 271.504 162.773 Q 270.416 162.126 269.199 162.436 L 269.199 162.436 L 269.199 162.436 Q 267.992 162.744 267.356 163.83 L 267.356 163.83 L 267.356 163.83 Q 266.707 164.908 267.014 166.114 L 267.014 166.114 L 267.014 166.114 Q 267.324 167.331 268.41 167.967 L 268.41 167.967 L 268.41 167.967 Q 269.475 168.609 270.692 168.299 L 270.692 168.299 L 270.692 168.299 Q 271.919 167.986 272.558 166.91 L 272.558 166.91 L 272.558 166.91 Q 273.2 165.846 272.887 164.618 L 272.887 164.618 Z  M 273.617 164.432 L 273.617 164.432 L 273.617 164.432 Q 273.868 165.416 273.591 166.411 L 273.591 166.411 L 273.591 166.411 Q 273.315 167.36 272.603 168.06 L 272.603 168.06 L 272.603 168.06 Q 271.862 168.778 270.878 169.029 L 270.878 169.029 L 270.878 169.029 Q 269.904 169.277 268.91 169 L 268.91 169 L 268.91 169 Q 267.963 168.734 267.264 168.022 L 267.264 168.022 L 267.264 168.022 Q 266.548 167.292 266.295 166.297 L 266.295 166.297 L 266.295 166.297 Q 266.041 165.303 266.323 164.329 L 266.323 164.329 L 266.323 164.329 Q 266.594 163.359 267.298 162.672 L 267.298 162.672 L 267.298 162.672 Q 268.029 161.957 269.013 161.706 L 269.013 161.706 L 269.013 161.706 Q 270.007 161.453 270.991 161.732 L 270.991 161.732 L 270.991 161.732 Q 271.951 162.006 272.651 162.718 L 272.651 162.718 L 272.651 162.718 Q 273.366 163.448 273.617 164.432 L 273.617 164.432 Z " fill-rule="evenodd" fill="rgb(231,0,0)"/></g><g><rect x="167.552" y="202.409" width="171.572" height="102.507" transform="matrix(1,0,0,1,0,0)" fill="rgb(255,255,255)"/><rect x="276.876" y="202.409" width="62.248" height="102.507" transform="matrix(1,0,0,1,0,0)" fill="rgb(18,147,98)"/><rect x="167.552" y="202.409" width="62.2" height="102.507" transform="matrix(1,0,0,1,0,0)" fill="rgb(18,147,98)"/></g></g></g></g></svg>